<?xml version="1.0" encoding="utf-8"?>
<!-- Generator: Adobe Illustrator 24.2.0, SVG Export Plug-In . SVG Version: 6.00 Build 0)  -->
<svg version="1.1" id="Layer_1" xmlns="http://www.w3.org/2000/svg" xmlns:xlink="http://www.w3.org/1999/xlink" x="0px" y="0px"
	 viewBox="0 0 151.2 151.2" style="enable-background:new 0 0 151.2 151.2;" xml:space="preserve">
<style type="text/css">
	.st0{fill:#d0491e;}
</style>
<g>
	<g>
		<path class="st0" d="M151.2,141.4c0-20.7,0-41.4,0-62.1c-3.1-3.5-7.3-4.4-12.7-4.4C96.5,75,54.4,75,12.3,75C2.9,75,0,77.2,0,84.6
			c0,17.2,0.2,34.4,0,51.5c-0.1,7.7,3.7,12.9,13.3,15.4c41.6,0,83.2,0,124.8,0C144.6,149.8,149.2,146.6,151.2,141.4z M75.5,93.3
			c12.7,0,22,10.3,16.1,18.8c-3,4.4-4,8.6-4.4,13.4c-0.6,7.2-11.5,11.1-18.5,6.5c-2.7-1.8-4.4-5.3-4.9-8.3
			c-0.7-3.5-0.9-6.7-3.6-10.1C52.9,104.8,61.9,93.3,75.5,93.3z"/>
		<path class="st0" d="M16.3,68.4c6.4,0,13.1,0,20.2,0c0.2-1.1,0.5-2.1,0.5-3.2c0-6.1,0-12.3,0-18.5c0.1-16.4,17.2-30.1,37.5-29.9
			c20.3,0.2,37.1,13.6,37.1,29.8c0,7.1,0,14.2,0,21.6c7.2,0,14,0,22,0c-0.7-11.2,0.2-22.4-2.4-33.1c-4.7-20-31.9-35.6-58.1-34.9
			C44.9,1.1,19.7,17.6,16.6,38.6C15.1,48.4,16.3,58.3,16.3,68.4z"/>
	</g>
</g>
</svg>
